<svg id="Layer_1" data-name="Layer 1" xmlns="http://www.w3.org/2000/svg" width="47.73" height="31.39" viewBox="0 0 47.73 31.39"><defs><style>.cls-1{fill:#f75590;}</style></defs><path class="cls-1" d="M6.28,31.39v-15H0V10.53H6.28V7.31A6.72,6.72,0,0,1,8.54,2a8.58,8.58,0,0,1,5.91-2h6.92V5.59H14.66a1.84,1.84,0,0,0-1.93,1.93v3h8.64v5.81H12.73V31.39Zm19.22,0V7.74h5.07v3.44h.17A4.46,4.46,0,0,1,32,8.38a3.66,3.66,0,0,1,2.67-1.07,3.72,3.72,0,0,1,2.66,1.07,4.92,4.92,0,0,1,1.42,2.8h.09a4.3,4.3,0,0,1,1.29-2.8,3.87,3.87,0,0,1,2.79-1.07A4.27,4.27,0,0,1,46.38,9a6.68,6.68,0,0,1,1.35,4.34V31.39H42.31V14.06c0-1.38-.56-2.06-1.68-2.06S39,12.68,39,14.06V31.39H34.27V14.06c0-1.38-.56-2.06-1.68-2.06s-1.67.68-1.67,2.06V31.39Z"/></svg>